/* XPM */
static char *_ca947ea54274492ef2c642707c61936oztL4UKWMhPbvk9C[] = {
/* columns rows colors chars-per-pixel */
"64 64 28 1 ",
"  c black",
". c #DD1F23",
"X c #DD1E25",
"o c #DE1F24",
"O c #DE1F27",
"+ c #DE2024",
"@ c #DE2527",
"# c #DF2627",
"$ c #DD252D",
"% c #DD2C32",
"& c #DE2C32",
"* c #DB2E34",
"= c #DF8B45",
"- c #DF8B47",
"; c #DF8D47",
": c #DE9447",
"> c #DF9348",
", c #DF9548",
"< c #DC944B",
"1 c #DF944A",
"2 c #DE954E",
"3 c #DD9753",
"4 c #DE9854",
"5 c #E19349",
"6 c #E0934B",
"7 c #E09449",
"8 c #E0944A",
"9 c white",
/* pixels */
"9999999999999999999999999999999999999999999999999999999999999999",
"9999999999999999999999999999999999999999999999999999999999999999",
"9999999999999999999999999999999999999999999999999999999999999999",
"9999999999999999999999999999999999999999999999999999999999999999",
"9999999999999999999999999999999999999999999999999999999999999999",
"9999999999999999999999999999999999999999999999999999999999999999",
"99999999999999999999999999999999999999999999999           999999",
"99999999999999999999999999999999999999999999999 488888888 999999",
"99999999999999999999999999999999999999999999999 77777777> 999999",
"99999999999999999999999999999999999999999999999 77777777, 999999",
"99999999999999999999999999999999999999999999999 77777777> 999999",
"99999999999999999999999999999999999999          77777777> 999999",
"99999999999999999999999999999999999999 38877777777778888, 999999",
"99999999999999999999999999999999999999 18877777777778688> 999999",
"99999999999999999999999999999999999999 3887777778:77,688> 999999",
"99999999999999999999999999999          15557777755775,>>> 999999",
"99999999999999999999999999999 777777888    878:8          999999",
"99999999999999999999999999999 887777888 99 87888 999999999999999",
"99999999999999999999999999999 887777778 99 87788 999999999999999",
"999999999999999999999999      887777778 99 777:8 999999999999999",
"999999999999999999999999 88888887888888 99 877:8 999999999999999",
"999999999999999999999999 88888          99 88888 999999999999999",
"999999999999999999999999 87787 99999999999 88866 999999999999999",
"999999999999999999999999 77777 99999999999 886,1 999999999999999",
"9999999999999999999      88888 999999      8,11, 999999999999999",
"99999999999         888888     999999 88888      999999999999999",
"99999999999 OOoOOOoo,:7888 9999999999 8,>>6 99999999999999999999",
"99999999999 oOoooooo+77888 9999999999 ,18>6 99999999999999999999",
"99999999999 oOOOOoOoo1883: 9999999999 81>>6 99999999999999999999",
"999999      oooOOOOoo68838     999999 536>6 99999999999999999999",
"999999 ooooOOOooooOOo68888.ooo 999999 ,,>>5 99999999999999999999",
"999999 .oooooOOOOOooo6888+.ooo 999999 >1>>1 99999999999999999999",
"999999 +OoooooooOOOO+8886ooooo 999999 81>>6 99999999999999999999",
"999999 +oOoOOOOoooooo8886oOOoo 99     ,3>>6      999999999999999",
"999999 .oOoOoOOOOOOoo@@@@+oOOO 99 oOooo;>>>Ooooo 999999999999999",
"999999 ooOooOOooOoOoo+oOoOoOOo 99 ooOoo=3>>oooOO 999999999999999",
"999999 .oooOOOoOoOOoOOoOOOooOo 99 Ooooo-1>>oOooo 999999999999999",
"999999 ooOoooooOOoOooOoOoooOOo 99 OooOo->1>OooOO      9999999999",
"999999 ooOOOoOooOoOooOoOOoOOOO    OOOOo-1>>oOOoOooOoo 9999999999",
"999999 OOooo    OoOOoOOoO     oOooOoooo->1>ooXXOo&%%o 9999999999",
"999999 +oOoO 99 OoooOOoOO 999 OOoOOOOOo=>1>oOOoOOooOo 9999999999",
"999999 oOoOo 99 oOOOOooOo 999 ooooOooOo-1>>oOooOooOOo 9999999999",
"999999 ooooo    OoOooOoOo 999 ooooooooo-111oooXoOoOOo 9999999999",
"999999      oooOOoOooOoOo 999 ooOOOOOOoOoooOOOOOOoooO 9999999999",
"99999999999 OOoOOOOOOOoOo 999 OoooOooOooOoooooooooOOO 9999999999",
"99999999999 oOoooooooOoOo 999 oooOOooooOOoOoOOoOOooOo 9999999999",
"99999999999 OoOOOOoOOOOo* 999 OOOOooOoOOOOOOoOOOOOOOo 9999999999",
"99999999999 OOoOOoOOooOOo 999 oooOOOOOOooooooOXoooOoo 9999999999",
"99999999999               999 ooo.    OooOoOOOOOOoOOO 9999999999",
"99999999999999999999999999999 oooo 99 OOoOoOooooooOoo 9999999999",
"99999999999999999999999999999 oooo 99 oOOooooOooooOoo 9999999999",
"99999999999999999999999999999 oooo    OOoOOOooOooOOoo 9999999999",
"99999999999999999999999999999     o$$$OOOoOOOOOOOOooo 9999999999",
"999999999999999999999999999999999 ooOooooOoooooO      9999999999",
"999999999999999999999999999999999 OOooOooOOOoOoO 999999999999999",
"999999999999999999999999999999999 OoOOoOoOooOoOo 999999999999999",
"999999999999999999999999999999999 oooOoOoooOoOoo 999999999999999",
"999999999999999999999999999999999                999999999999999",
"9999999999999999999999999999999999999999999999999999999999999999",
"9999999999999999999999999999999999999999999999999999999999999999",
"9999999999999999999999999999999999999999999999999999999999999999",
"9999999999999999999999999999999999999999999999999999999999999999",
"9999999999999999999999999999999999999999999999999999999999999999",
"9999999999999999999999999999999999999999999999999999999999999999"
};
