/* XPM */
static char *_97f65bd11934d588e77944f7dcb27adaMNxQSxQrbyQCPGn[] = {
/* columns rows colors chars-per-pixel */
"64 64 17 1 ",
"  c #01995E",
". c #009B61",
"X c #009D64",
"o c #009E67",
"O c #049E66",
"+ c #009F68",
"@ c #02A069",
"# c #0BA06A",
"$ c #A7DDC9",
"% c #A8DDCA",
"& c #A9DECB",
"* c #FAFAF9",
"= c #F8FCFA",
"- c #FAFCFB",
"; c #FCFCFB",
": c #FCFDFD",
"> c #FEFEFE",
/* pixels */
">>>>>>>>>>>>>>>>>>>>>>>>>>>>>>>>>>>>>>>>>>>>>>>>>>>>>>>>>>>>>>>>",
">>>>>>>>>>>>>>>>>>>>>>>>>>>>>>>>>>>>>>>>>>>>>>>>>>>>>>>>>>>>>>>>",
">>>>>>>>>>>>>>>>>>>>>>>>>>>>>>>>>>>>>>>>>>>>>>>>>>>>>>>>>>>>>>>>",
">>>>>>>>>>>>>>>>>>>>>>>>>>>>>>>>>>>>>>>>>>>>>>>>>>>>>>>>>>>>>>>>",
">>>>>>>>>>>>>>>>>>>>>>>>>>>>>>>>>>>>>>>>>>>>>>>>>>>>>>>>>>>>>>>>",
">>>>>>>>>>>>>>>>>>>>>>>>>>>>>>>>>>>>>>>>>>>>>>>>>>>>>>>>>>>>>>>>",
">>>>>>>>>>>>>>>>>>>>>>>>>>>>>>>>>>>>>>>>>>>>>>>>>>>>>>>>>>>>>>>>",
">>>>>>>>>>>>>>>>>>>>>>>>>>>>>>>>>>>>>>>>>>>>>>>>>>>>>>>>>>>>>>>>",
">>>>>>>>>>>>>>>>>>>>>>>>>>>>>>>>>>>>>>>>>>>>>>>>>>>>>>>>>>>>>>>>",
">>>>>>>>>>>>>>>>>>>>>>>>>>>>>>>>>>>>>>>>>>>>>>>>>>>>>>>>>>>>>>>>",
">>>>>>>>>>>>>>>>>>>>>>>>>>>>>>>>>>>>>>>>>>>>>>>>>>>>>>>>>>>>>>>>",
">>>>>>>>>>>>>>>>>>>>>>>>>>>>>>>>>>>>>>>>>>>>>>>>>>>>>>>>>>>>>>>>",
">>>>>>>>>>>>>>>>>>>>>>>>>>>>>>>>>>>>>>>>>>>>>>>>>>>>>>>>>>>>>>>>",
">>>>>>>>>>>>>>>>>>>>>>>>>>>>>>>>>>>>>>>>>>>>>>>>>>>>>>>>>>>>>>>>",
">>>>>>>>>>>>>>>>>>>>>>>>>>>>>>>>>>>>>>>>>>>>>>>>>>>>>>>>>>>>>>>>",
">++++++++++++++++++++++++++++++++++++++++++++++++++++++++++++++>",
">+++++++++++++@o@o@o@o@o++++++++++++++++@o@o@o@o++++@o@o@o@o@o@*",
">+++++++++++++o@o@o@o@o@++++++++++++++++o@o@o@o@++++o@o@o@o@o@o*",
">o+++++++++++o@o@o@o@o@o++++++++++++++++@o@o@o@o++++@o@o@o@o++@*",
">o++++++++++o@o@o@o@o@o@++++++++++++++++o@o@o@o@++++o@o@o@o@+++-",
">+++++++@o@@@@@@@@++@+++++++o+++++++@+++o@o@oo@o+++ooo@o+++++++>",
">++%%%%%%%$$$%$%$%%%$$%%$%%%%%%%%%%%%$%%%%$$%%%%%%%%%%%%%%%%%++*",
">++%>>>>>>>>>>>>>>>>++++>>>>o+++>>>+@o>>>>>o.>>>>>+>>o>>>>>>%++;",
">++%>>>>>>>>>>o@@>>>+++>>>>>O++>>>>>o@>>>>>>X>>>>>+>>@>>>>>>%++>",
";++%>>>>>>>>>>@o+>>>+++>>>>>>++>>>>>++>>>>>>.>>>>>@>>o>>>>>>%++*",
">++%>>>>>>>>>>o@#>>>+++>>++>>++>>+>>++>> X>>.>>>>>o>>+>>>>>>%++*",
">++%>>>>>ooooooo>>>>+++>>++>>+>>+++>>+>>@oo>oo>>>@o>>@>>++++%++*",
">++%>>>>o+++@ooo>>>>+++>>++>>+>>+++>>+>>o@X>o@>>>o@>>o>>++++%+@*",
"*o+$>>>>o>>>@o@o+>>>@++>>+++++>>+++>>+>>@oo>@o>>>o@>>+>>+o++%++*",
"-@@%>>>+@>>oo@o>++->++++>>++++>>+++>>+>>o@+>o@>>>@o>>+>>++++%++;",
">o@%>>>>>>>@@o@>>++>++@O>>>+++>>+++>>+>>@o>>@o>>>o@>>+>>>>>+%++*",
";@o$>>>>>>>oo@>>>>>>+O+++>>>++>>+++>>+>>>>>>o@>>>@o>>+>>>>>+%++*",
">++%>>>>>>o+++>>>>>>o@o@@o>>>o>>+oo>>o>>>>>+++>>>++>>+>>>>>@%@o*",
">++%>>>>>>o+>++>>>>>@o@oo@o>>o>>oo@>>@>>>>>>++>>>++>>+>>oOoo%o@;",
";++%>>>>>>++>++>>>>>o@o@@oo>>@>>@o@>>o>>++>>++>>>++>>+>>o@o@$@@-",
"*++%>>>>>>++>>++>>>>@o@>-@o>>o>>o@o>>+>>++>>++>>>++>>+>>@o@o$o@>",
">@o%>@++++++>>++>>>>@o@>>@o>>o>>@o@>>o>>++>>++>>>++>>+>>++++%@o*",
">o@%>>>>>>>>>>>+o>>>o@o>>o@>>@>>o@o>-@>>++>>++>>>++>>+>>++++%o@*",
"*+o$>>>>>>>>>>>@@>>>@o@>>o@>>++>>@>>@o>>o+>>++>>>++>>+>>>>>>$@o*",
">+@%>>>>>>>>>>>>oo>>o@o>>>>>>++>>>>>o@>>++>>++>>>++>>+>>>>>>$o@*",
">@+%>>>>>>>>>>>>>>>>@+++>>>>>+o>>>>>++>>++>>++>>>++>>+>>>>>>%++>",
">o+$>>>>>>>>>>>>>>>>+++++>>>++++>>>o++>>++>>o+>>>++>>+>>>>>>%++;",
">o@$%%%%$$%$%%%%$$$%%%%%%%%%%%%%$$$%%%%%%%%%%%$$%%%%%%$$%%%%%++*",
">@o@+++@@ooo@+++@@+++++++++++++++@o@+++++++++++@++++++@o+++++++>",
">+++++++o@o@oo@o@o+++++++++++++++++o++++++++++oo++++o@o@o@oo+++>",
"*+++++++@o@o@@o@ooo+++++++++o+++++++++++++++++o+++++@o@o@o@@++o*",
">+++++++o@o@o@@o@o++++++++++++++++++++++++++++++++++o@o@o@@o@oo*",
">+++++++@o@o@oo@o@++++++++++++++++++++++++++++++++++@o@o@oo@o@o*",
">++++++++++++++++++++++++++++++++++++++++++++++++++++++++++++++>",
">>>>>>>>>>>>>>>>>>>>>>>>>>>>>>>>>>>>>>>>>>>>>>>>>>>>>>>>>>>>>>>>",
">>>>>>>>>>>>>>>>>>>>>>>>>>>>>>>>>>>>>>>>>>>>>>>>>>>>>>>>>>>>>>>>",
">>>>>>>>>>>>>>>>>>>>>>>>>>>>>>>>>>>>>>>>>>>>>>>>>>>>>>>>>>>>>>>>",
">>>>>>>>>>>>>>>>>>>>>>>>>>>>>>>>>>>>>>>>>>>>>>>>>>>>>>>>>>>>>>>>",
">>>>>>>>>>>>>>>>>>>>>>>>>>>>>>>>>>>>>>>>>>>>>>>>>>>>>>>>>>>>>>>>",
">>>>>>>>>>>>>>>>>>>>>>>>>>>>>>>>>>>>>>>>>>>>>>>>>>>>>>>>>>>>>>>>",
">>>>>>>>>>>>>>>>>>>>>>>>>>>>>>>>>>>>>>>>>>>>>>>>>>>>>>>>>>>>>>>>",
">>>>>>>>>>>>>>>>>>>>>>>>>>>>>>>>>>>>>>>>>>>>>>>>>>>>>>>>>>>>>>>>",
">>>>>>>>>>>>>>>>>>>>>>>>>>>>>>>>>>>>>>>>>>>>>>>>>>>>>>>>>>>>>>>>",
">>>>>>>>>>>>>>>>>>>>>>>>>>>>>>>>>>>>>>>>>>>>>>>>>>>>>>>>>>>>>>>>",
">>>>>>>>>>>>>>>>>>>>>>>>>>>>>>>>>>>>>>>>>>>>>>>>>>>>>>>>>>>>>>>>",
">>>>>>>>>>>>>>>>>>>>>>>>>>>>>>>>>>>>>>>>>>>>>>>>>>>>>>>>>>>>>>>>",
">>>>>>>>>>>>>>>>>>>>>>>>>>>>>>>>>>>>>>>>>>>>>>>>>>>>>>>>>>>>>>>>",
">>>>>>>>>>>>>>>>>>>>>>>>>>>>>>>>>>>>>>>>>>>>>>>>>>>>>>>>>>>>>>>>",
">>>>>>>>>>>>>>>>>>>>>>>>>>>>>>>>>>>>>>>>>>>>>>>>>>>>>>>>>>>>>>>>"
};
