/* XPM */
static char *_e965ce2c4a449d3a82684a88d2f16dcLnbcOM7o1U2UUtwR[] = {
/* columns rows colors chars-per-pixel */
"64 64 14 1 ",
"  c black",
". c #0E0D05",
"X c #0F0E05",
"o c gray3",
"O c gray6",
"+ c #131207",
"@ c #16150D",
"# c #22200D",
"$ c #323232",
"% c #393939",
"& c #EED410",
"* c #DDDDDD",
"= c #FDFDFD",
"- c white",
/* pixels */
"------------------------              o   ----------------------",
"------------------------              o   ----------------------",
"------------------------              o   ----------------------",
"------------------      &&&&&&&&&&&&&&&&&&      ----------------",
"------------------      &&&&&&&&&&&&&&&&&&      ----------------",
"------------------     X&&&&&&&&&&&&&&&&&&      ----------------",
"------------      &&&&&&&&&&&&&&&&&&&&&&&&&&&&&       ----------",
"------------      &&&&&&&&&&&&&&&&&&&&&&&&&&&&&       ----------",
"----------        &&&&&&&&&&&&&&&&&&&&&&&&&&&&&         --------",
"----------   &&&&&&&&&&&&&&&&&&&&&&&&&&&&&&&&&&&&&&&&   --------",
"----------  +&&&&&&&&&&&&&&&&&&&&&&&&&&&&&&&&&&&&&&&&   --------",
"----------  +&&&&&&&&&&&&&&&&&&&&&&&&&&&&&&&&&&&&&&&&   --------",
"-------   &&&&&&&&&&&&&&&&&&&&&&& %---&&&&&&&&&&&&&&&&&&  O-----",
"-------   &&&&&&&&&&&&&&&&&&&&&&& %---&&&&&&&&&&&&&&&&&&  O-----",
"-------   &&&&&&&&&&&&&&&&&&&&    %---&&&&&&&&&&&&&&&&&&  O-----",
"-------   &&&&&&&&&&&&&&&&&&&&    %------&&&&&&&&&&&&&&&  O-----",
"-------   &&&&&&&&&&&&&&&&&&&&    %------&&&&&&&&&&&&&&&   -----",
"----   #  &&&&&&&&&&&&&&&&&&&&    %------&&&&&&&&&&&&&&&   -----",
"----   &&&&&&&&&&&&&&&&&&&&&&&    %------&&&&&&&&&&&&&&&&&&   --",
"----   &&&&&&&&&&&&&&&&&&&&&&&    %------&&&&&&&&&&&&&&&&&&   --",
"----   &&&&&&&&&&&&&&&&&&&&&&&    $******&&&&&&&&&&&&&&&&&&   --",
"----   &&&&&&&&&&&&&&&&&&&&&&&        o  &&&&&&&&&&&&&&&&&&   --",
"----   &&&&&&&&&&&&&&&&&&&&&&&        o  &&&&&&&&&&&&&&&&&&   --",
"-   &&&&&&&&&&&&&&&&&&&&&&&&&&&&&     &&&&&&&&&&&&&&&     O-----",
"-   &&&&&&&&&&&&&&&&&&&&&&&&&&&&&     &&&&&&&&&&&&&&&     O-----",
"-   &&&&&&&&&&&&&&&&&&&&&&&&&&&&&     &&&&&&&&&&&&&&&     O-----",
"-   &&&&&&&&&&&&&&&&&&&&&&&&&&&&&&&&&&&&&&&&&&&      -----------",
"-   &&&&&&&&&&&&&&&&&&&&&&&&&&&&&&&&&&&&&&&&&&&      -----------",
"-   &&&&&&&&&&&&&&&&&&&&&&&&&&&&&&&&&&&&&&&&&&&      -----------",
"-   &&&&&&&&&&&&&&&&&&&&&&&&&&&&&&&&&&&&&      -----------------",
"-   &&&&&&&&&&&&&&&&&&&&&&&&&&&&&&&&&&&&&      -----------------",
"-   &&&&&&&&&&&&&&&&&&&&&&&&&&&&&&&&&&&&&      -----------------",
"-   &&&&&&&&&&&&&&&&&&&&&&&&&&&&&&&&     -----------------------",
"-   &&&&&&&&&&&&&&&&&&&&&&&&&&&&&&&&     -----------------------",
"-   &&&&&&&&&&&&&&&&&&&&&&&&&&&&&&&&  o  -----------------------",
"-   &&&&&&&&&&&&&&&&&&&&&&&&&&      ----------------------------",
"-   &&&&&&&&&&&&&&&&&&&&&&&&&&      ----------------------------",
"-   &&&&&&&&&&&&&&&&&&&&&&&&&&&&&   ----------------------------",
"-   &&&&&&&&&&&&&&&&&&&&&&&&&&&&&&    --------------------------",
"-   &&&&&&&&&&&&&&&&&&&&&&&&&&&&&&    --------------------------",
"-   &&&&&&&&&&&&&&&&&&&&&&&&&&&&&&    --------------------------",
"----   &&&&&&&&&&&&&&&&&&&&&&&&&&&&&&&      --------=-----------",
"----   &&&&&&&&&&&&&&&&&&&&&&&&&&&&&&&      ---------=----------",
"----   &&&&&&&&&&&&&&&&&&&&&&&&&&&&&&&      ---------=----------",
"----   &&&&&&&&&&&&&&&&&&&&&&&&&&&&&&&&&&&&       --------------",
"----   &&&&&&&&&&&&&&&&&&&&&&&&&&&&&&&&&&&&       --------------",
"-------  &&&&&&&&&&&&&&&&&&&&&&&&&&&&&&&&&&&&&&&&&      --------",
"-------  &&&&&&&&&&&&&&&&&&&&&&&&&&&&&&&&&&&&&&&&&      --------",
"-------  &&&&&&&&&&&&&&&&&&&&&&&&&&&&&&&&&&&&&&&&&+     --------",
"-------  &&&&&&&&&&&&&&&&&&&&&&&&&&&&&&&&&&&&&&&&&&&&&&&   -----",
"-------  &&&&&&&&&&&&&&&&&&&&&&&&&&&&&&&&&&&&&&&&&&&&&&&   -----",
"-------  &&&&&&&&&&&&&&&&&&&&&&&&&&&&&&&&&&&&&&&&&&&&&&&  O-----",
"---------   +&&&&&&&&&&&&&&&&&&&&&&&&&&&&&&&&&&&&&&&&&  --------",
"----=----   +&&&&&&&&&&&&&&&&&&&&&&&&&&&&&&&&&&&&&&&&&  --------",
"---------   +&&&&&&&&&&&&&&&&&&&&&&&&&&&&&&&&&&&&&&&&&  --------",
"----=-------      &&&&&&&&&&&&&&&&&&&&&&&&&&&&&&        --------",
"------------      &&&&&&&&&&&&&&&&&&&&&&&&&&&&&&      ----------",
"------------      &&&&&&&&&&&&&&&&&&&&&&&&&&&&&&      ----------",
"-----------------      X&&&&&&&&&&&&&&&&&       ----------------",
"-----------------       &&&&&&&&&&&&&&&&&       ----------------",
"-----------------       &&&&&&&&&&&&&&&&&       ----------------",
"------------------------XX..XXXXXXXXXX@XX-----------------------",
"------------------------              o  -----------------------",
"------------------------              o  -----------------------"
};
