/* XPM */
static char *_152bf13691647728335312dd03d238eDBfHipc4AsONpEms[] = {
/* columns rows colors chars-per-pixel */
"64 64 82 1 ",
"  c #B70D0D",
". c #B80F0F",
"X c #BA1111",
"o c #BB1313",
"O c #BC1616",
"+ c #BD1818",
"@ c #BF1D1D",
"# c #C20909",
"$ c #C70F0F",
"% c #D60202",
"& c #D80505",
"* c #D80707",
"= c #D90808",
"- c #DA0909",
"; c #DB0B0B",
": c #DB0C0C",
"> c #DC0E0E",
", c #DD0F0F",
"< c #C01E1E",
"1 c #C11F1F",
"2 c #DE1212",
"3 c #DF1414",
"4 c #E01515",
"5 c #E11717",
"6 c #E21919",
"7 c #E31B1B",
"8 c #E51E1E",
"9 c #C32323",
"0 c #C42525",
"q c #CB2424",
"w c #C62828",
"e c #C72A2A",
"r c #C72B2B",
"t c #C92F2F",
"y c #D12D2D",
"u c #D22C2C",
"i c #CA3030",
"p c #CB3333",
"a c #CC3535",
"s c #CE3838",
"d c #CF3C3C",
"f c #D53636",
"g c #D03D3D",
"h c #D13F3F",
"j c #E62121",
"k c #E72222",
"l c #E82424",
"z c #E82525",
"x c #E92626",
"c c #EA2828",
"v c #EB2B2B",
"b c #EC2C2C",
"n c #ED2E2E",
"m c #EF3232",
"M c #F03333",
"N c #F03434",
"B c #F23838",
"V c #F33A3A",
"C c #F33B3B",
"Z c #F43C3C",
"A c #F53F3F",
"S c #D24040",
"D c #D34141",
"F c #D34343",
"G c #D44444",
"H c #D44545",
"J c #D74949",
"K c #D84C4C",
"L c #D84E4E",
"P c #E34747",
"I c #E34848",
"U c #E44949",
"Y c #E54D4D",
"T c #F74242",
"R c #F84444",
"E c #F94545",
"W c #F94646",
"Q c #FB4A4A",
"! c #FC4B4B",
"~ c #FC4D4D",
"^ c #FD4E4E",
"/ c #009F68",
/* pixels */
"////////////////////////////////////////////////////////////////",
"////////////////////////////////////////////////////////////////",
"//////LLKL////////////////////////////////////////////KKLL//////",
"////KKJYYKKK////////////////////////////////////////KKKUYKKK////",
"///KK^^^^^^JK//////////////////////////////////////KK^^^^^^KK///",
"///J~^^^~~~^JJ////////////////////////////////////KK^Q^^^^Q^K///",
"//JJQ~QQ~Q~QQJJ//////////////////////////////////KFQQQQQQ^QQJK//",
"//JIQQQQQQQQQ~JJ////////////////////////////////KKQQQ^QQQQQQPK//",
"//GUQQQWQQQWQQQHK//////////////////////////////GGQQQEQQEQWQQPF//",
"//KGEQWQQWQWWQQWFK////////////////////////////KGQWWWQ^EQWQWQGK//",
"///GEERWWWWWWWWWRFH//////////////////////////GFRWWWWEEREWWWWG///",
"///GGEWRWRWRWRWWWWDH////////////////////////FhRWWWWWWEWWWWWhG///",
"////GDWWRRRRTRRRRRRDG//////////////////////HDWWRWRRRRRRRRWFG////",
"/////DDWARARTTTTRARADD////////////////////DDRTRARRARARRARGh/////",
"//////DDRAARATTTARATRDh//////////////////FhAAWAWARARARARhF//////",
"///////hhAARAAATRAAATTDD////////////////hhAWAAAAAAAAARAhh///////",
"////////ghRAAAAAAAAAAAAhD//////////////hdTAAAAAAAAAAAAsD////////",
"/////////ggAABVAVAAVAVTVhd////////////hdABATBAATAVRVAhh/////////",
"//////////hhVAVAAVAAVVVATss//////////ghAABBBBTABAVVVhd//////////",
"///////////hgVVVVVVVVVVVBAdh////////ggVVABAABBVVVVVhd///////////",
"////////////ahVVVVVVVVVVBABsh//////asVVVBBABABBVVVah////////////",
"/////////////ahVBBBBVVBBmABVas////ahVVVVBBBBNVVVBgh/////////////",
"//////////////ssNVMVNNBBNBMVVss//ggBVNNVBmNBVNNBff//////////////",
"///////////////shNVNVMVMBMBNVNssaaMMNNVNNANNNVNsp///////////////",
"////////////////aaMMMMMNNNNNMMNffNmmMMNNMMNNNNas////////////////",
"/////////////////aaMMMMMMMMMMmMMNNmmMMMNMmMMNaa/////////////////",
"//////////////////aaMMnMmmMMmmmMNMMmmmmmmmMMaa//////////////////",
"///////////////////aanMMmnmmmmnmMMmmnmmmmMnpa///////////////////",
"////////////////////ppnnnnnnmnnnnmnnnmnnnnap////////////////////",
"/////////////////////ppnnnnnnnnnnnnnnnnnnpp/////////////////////",
"//////////////////////tpnnvbbbbbbbnvvnnvii//////////////////////",
"///////////////////////tyvvvbbvvbbvvvvvyt///////////////////////",
"///////////////////////rubxxvxbxxbbvxxnut///////////////////////",
"//////////////////////iexxbbxvxvxxxxxbxxie//////////////////////",
"/////////////////////eevxxkxxxvkxxxxxxxxxee/////////////////////",
"////////////////////eekvkxv8bkxkxxxxkxxxzxet////////////////////",
"///////////////////ervkkxkkxxkxxkzzkxkxkkkx0e///////////////////",
"//////////////////eqk7kkkkkkkkkkkkkkkkkkkkkk0e//////////////////",
"/////////////////00kkkkk8kkk8kkkkkk8kkkkkkkkke0/////////////////",
"////////////////00k8k87k8888888qq8k888888888k800////////////////",
"///////////////0088888888888889000888888888888800///////////////",
"//////////////90888868868777899//99887778787886899//////////////",
"/////////////99666866668777799////99668677776686609/////////////",
"////////////9<666666666657599//////996666667666666<9////////////",
"///////////9@6653666666245<<////////<<6655555656656<<///////////",
"//////////<<6635663565665<<//////////<<55555555655569<//////////",
"/////////<@5353535533533<<////////////<<5355252235355@</////////",
"////////@@3332333333333@<//////////////<@5225226233233@@////////",
"///////+<>5>5>4>>5>4>4O<////////////////O<5>>4>422225>3@<///////",
"//////<<>5>5>4>4>54>><<//////////////////<<>4>452222>3>5<O//////",
"/////+O2>>>>,>>>>>>><<////////////////////O<;>>>>>>>2>>>;<</////",
"////+O>>>>>>>>>>>>><X//////////////////////<O>>>>>>>>>>>;>oO////",
"///OO;>;>;;;>;;>;;OO////////////////////////OO>;>;;;;>;;;;;OO///",
"///O>;;*;;;;;;;;;OO//////////////////////////OO;;;;;;;;;;;;;o///",
"//OO**;;;=;==;;*oo////////////////////////////oo;;;;;>&;;*;;oo//",
"//o$*;**=*=====X.//////////////////////////////oo*&*&===&;&;$o//",
"//X$******;**=XO////////////////////////////////oo******&==&$O//",
"//XX*%**%*%*%X.//////////////////////////////////o.**%**=&%=O //",
"///X%%%%%*%*..////////////////////////////////////..%*%%%%=%.///",
"///..%%%%%%..//////////////////////////////////////..%%%%%% .///",
"////. .##...//////////////////////////////////////// . ##...////",
"//////   .////////////////////////////////////////////   .//////",
"////////////////////////////////////////////////////////////////",
"////////////////////////////////////////////////////////////////"
};
